<svg id="logo" data-name="Layer 1" xmlns="http://www.w3.org/2000/svg" width="220" height="65" viewBox="0 0 229.964 68.595"><defs><style>.cls-1{fill:#e35925}.cls-2{fill:#4d4d4d}.cls-3{fill:#221f1f}</style></defs><path class="cls-1" d="M19.024 38.084a4.128 4.128 0 0 0-.938 1.083 5.467 5.467 0 0 0-.562 1.283 10.125 10.125 0 0 0-.353 2.81 8.835 8.835 0 0 0 .382 2.687 7.965 7.965 0 0 0 .487 1.225 6.859 6.859 0 0 0 .723 1.157 8.59 8.59 0 0 0 .983 1.063 8.112 8.112 0 0 0 1.116.857 7.41 7.41 0 0 0 2.559 1.033 7.701 7.701 0 0 0 1.428.143 7.399 7.399 0 0 0 1.442-.128 6.778 6.778 0 0 0 2.689-1.146c.04-.03.103-.078.189-.137.043-.03.092-.06.145-.098l.17-.13c.13-.086.26-.211.422-.335.15-.14.326-.288.495-.466a8.236 8.236 0 0 0 1.062-1.322 7.967 7.967 0 0 0 .482-.884c.082-.157.141-.328.216-.497.034-.086.06-.176.094-.264l.049-.134.04-.138c.025-.093.062-.184.083-.28s.046-.193.072-.29c.023-.097.038-.198.06-.298.025-.1.036-.202.051-.305a7.596 7.596 0 0 0 .09-1.282 8.049 8.049 0 0 0-1.955-5.192l-.36-.388-.467-.521-.965-1.08-1.937-2.166C16.682 22.41 6.486 11.258 5.883 11.584c-.256.13 6.03 7.169 6.316 7.55 1.407 1.861 4.035 5.046 7.261 8.85a919.418 919.418 0 0 0 5.207 6.084l2.793 3.225 1.418 1.63.261.295.121.134.03.034.016.017.008.01.031.045q.064.087.132.17c.045.055.078.118.12.175a6.3 6.3 0 0 1 .75 1.477 6.428 6.428 0 0 1 .325 1.577 6.326 6.326 0 0 1 .016.78c-.013.128-.009.255-.03.38l-.018.186q-.017.092-.03.183a5.929 5.929 0 0 1-.375 1.337 6.353 6.353 0 0 1-1.211 1.907q-.086.086-.16.173c-.056.054-.112.105-.163.157-.026.026-.05.053-.076.077l-.078.067c-.05.044-.096.09-.141.132-.099.072-.179.154-.258.215-.081.06-.148.12-.208.17a5.84 5.84 0 0 1-3.14 1.273 6.619 6.619 0 0 1-1.754-.053c-.138-.036-.284-.048-.42-.091-.068-.02-.14-.03-.209-.052s-.136-.043-.206-.062a5.99 5.99 0 0 1-.805-.32c-.136-.054-.258-.136-.392-.199l-.19-.115-.098-.056-.092-.064a5.57 5.57 0 0 0-.19-.124q-.089-.071-.182-.139c-.03-.022-.063-.044-.093-.067l-.089-.076-.18-.147q-.083-.08-.17-.157c-.028-.026-.059-.05-.087-.077l-.079-.083c-.053-.055-.109-.108-.164-.162q-.073-.087-.151-.172c-.026-.028-.054-.055-.078-.084l-.07-.09c-.047-.06-.1-.118-.146-.178-.085-.128-.188-.245-.266-.378a6.861 6.861 0 0 1-.822-1.712 8.41 8.41 0 0 1-.237-.968 9.174 9.174 0 0 1-.101-1.022 9.88 9.88 0 0 1 .228-2.693 5.087 5.087 0 0 1 .5-1.263c.061-.096.115-.198.182-.292l.208-.28.237-.26c.083-.085.176-.161.264-.242a.086.086 0 0 0-.006-.12.074.074 0 0 0-.118-.012z"/><path class="cls-1" d="M15.96 35.076a7.636 7.636 0 0 0-1.43 1.684 9.485 9.485 0 0 0-.936 1.962 14.165 14.165 0 0 0-.713 4.345 13.04 13.04 0 0 0 .59 4.214 12.241 12.241 0 0 0 .79 1.929 11.158 11.158 0 0 0 1.16 1.813 12.873 12.873 0 0 0 1.541 1.638 12.368 12.368 0 0 0 1.765 1.313 11.716 11.716 0 0 0 4.036 1.55 11.919 11.919 0 0 0 4.408-.026 11.029 11.029 0 0 0 4.192-1.778c.064-.046.162-.117.295-.209.065-.047.141-.096.222-.155l.262-.2c.195-.138.4-.324.642-.52.23-.212.49-.442.75-.717a12.508 12.508 0 0 0 1.618-2.06 12.273 12.273 0 0 0 .733-1.376c.12-.245.216-.508.324-.772.05-.133.093-.27.142-.407l.071-.208.061-.212c.039-.143.089-.285.122-.432l.106-.445c.033-.15.057-.303.087-.457.034-.152.052-.309.074-.466a11.875 11.875 0 0 0 .117-1.956 12.34 12.34 0 0 0-3.059-7.908l-.433-.467-.475-.529-.962-1.077-1.931-2.16C19.825 19.485 9.656 8.364 9.054 8.69c-.255.13 6.012 7.15 6.298 7.53 1.403 1.857 4.024 5.033 7.24 8.828a931.48 931.48 0 0 0 5.193 6.068l2.784 3.217 1.413 1.625.159.179.148.164c.094.106.21.225.273.313l.226.282c.077.092.14.194.213.29a10.66 10.66 0 0 1 1.981 6.477c-.014.217-.013.432-.04.643-.01.106-.017.212-.029.317l-.045.311a10.234 10.234 0 0 1-.613 2.298 10.457 10.457 0 0 1-.965 1.877 11.188 11.188 0 0 1-1.11 1.431q-.143.149-.275.293l-.273.264c-.045.042-.086.086-.13.126l-.131.114-.245.219c-.165.128-.308.258-.446.361-.14.102-.259.2-.366.28a10.171 10.171 0 0 1-5.415 1.989 10.851 10.851 0 0 1-2.9-.182c-.234-.059-.473-.098-.703-.171-.115-.035-.233-.061-.347-.1l-.343-.115a10.289 10.289 0 0 1-1.332-.574c-.22-.103-.425-.236-.64-.352-.104-.064-.205-.133-.31-.198l-.155-.098-.15-.108-.302-.213-.291-.231c-.049-.039-.099-.076-.147-.116l-.14-.123-.283-.247-.269-.26c-.045-.043-.091-.085-.135-.13l-.127-.137-.257-.273-.242-.287c-.04-.048-.083-.094-.122-.143l-.113-.15c-.076-.1-.156-.198-.23-.3-.138-.21-.292-.411-.418-.631a11.363 11.363 0 0 1-1.704-6.012 13.914 13.914 0 0 1 .586-4.21 9.037 9.037 0 0 1 .873-1.939c.098-.15.189-.305.295-.45.108-.145.216-.29.327-.433l.364-.408c.126-.133.263-.257.397-.384a.115.115 0 0 0 .024-.15c-.03-.04-.096-.041-.144.015z"/><path class="cls-1" d="M12.897 32.068a11.428 11.428 0 0 0-1.921 2.286 13.63 13.63 0 0 0-1.312 2.64 18.346 18.346 0 0 0-1.072 5.88 17.297 17.297 0 0 0 .8 5.742 16.521 16.521 0 0 0 1.091 2.632 15.441 15.441 0 0 0 1.596 2.47 16.457 16.457 0 0 0 10.027 6.049 16.198 16.198 0 0 0 5.946-.067 15.306 15.306 0 0 0 5.696-2.41l.4-.28c.088-.064.19-.132.3-.212l.352-.27c.261-.19.54-.438.862-.707.31-.284.655-.596 1.005-.967a16.795 16.795 0 0 0 2.173-2.8 16.566 16.566 0 0 0 .985-1.868c.16-.334.29-.688.432-1.046.067-.18.125-.366.19-.551l.093-.28.082-.288c.053-.193.116-.385.16-.584l.14-.6c.044-.202.077-.408.116-.615.042-.206.068-.417.096-.628a16.166 16.166 0 0 0 .145-2.63 16.63 16.63 0 0 0-4.164-10.623l-.505-.544c-.167-.181-.321-.358-.482-.538l-.96-1.075-1.926-2.153C22.968 16.56 12.827 5.47 12.225 5.795c-.255.131 5.995 7.132 6.28 7.51 1.398 1.853 4.012 5.02 7.219 8.805a927.393 927.393 0 0 0 5.177 6.052l2.776 3.208 1.41 1.621c.117.136.233.26.35.39.115.13.239.256.341.388l.321.393c.108.13.202.27.304.404a14.95 14.95 0 0 1 2.872 9.12c-.015.306-.017.61-.05.908-.014.15-.024.299-.04.446l-.06.44a14.533 14.533 0 0 1-.851 3.258 14.747 14.747 0 0 1-1.364 2.679 15.456 15.456 0 0 1-1.574 2.033l-.39.412-.383.371c-.063.06-.122.12-.184.176l-.184.161-.347.306c-.233.183-.439.361-.635.507l-.524.391a14.485 14.485 0 0 1-7.69 2.704 15.118 15.118 0 0 1-4.048-.31c-.328-.083-.66-.15-.983-.253-.162-.05-.327-.092-.486-.147l-.48-.168a14.594 14.594 0 0 1-1.859-.829c-.305-.151-.592-.335-.887-.505-.145-.09-.285-.187-.429-.28l-.214-.141-.207-.15-.415-.304-.4-.324c-.066-.054-.134-.107-.2-.162l-.192-.172c-.128-.115-.258-.229-.385-.346l-.368-.363c-.062-.061-.124-.121-.184-.183l-.176-.192-.35-.384-.332-.402c-.055-.067-.113-.133-.166-.202l-.156-.21c-.103-.14-.211-.279-.312-.422-.192-.292-.398-.577-.572-.884a15.67 15.67 0 0 1-2.247-8.32 18.099 18.099 0 0 1 .944-5.729 13.14 13.14 0 0 1 1.245-2.613c.134-.203.263-.412.407-.61.146-.195.294-.391.447-.585q.24-.28.49-.556c.169-.181.35-.352.53-.525a.154.154 0 0 0 .054-.182c-.028-.042-.105-.032-.17.043z"/><path class="cls-1" d="M9.834 29.06a15.37 15.37 0 0 0-2.413 2.887 17.823 17.823 0 0 0-1.688 3.318 22.567 22.567 0 0 0-1.429 7.417A21.598 21.598 0 0 0 5.31 49.95a20.803 20.803 0 0 0 1.394 3.335 19.725 19.725 0 0 0 2.032 3.127 21.439 21.439 0 0 0 2.66 2.786 20.936 20.936 0 0 0 3.062 2.225 20.315 20.315 0 0 0 6.99 2.586 20.62 20.62 0 0 0 3.721.291 20.218 20.218 0 0 0 3.764-.398 19.587 19.587 0 0 0 7.2-3.04l.504-.355c.112-.08.24-.166.378-.268l.445-.341c.327-.242.68-.55 1.081-.892.389-.355.82-.75 1.26-1.218a21.086 21.086 0 0 0 2.729-3.538 20.861 20.861 0 0 0 1.237-2.36c.197-.422.363-.868.539-1.32.083-.228.158-.46.237-.695l.116-.354.103-.362c.067-.242.142-.485.2-.735l.173-.755c.054-.255.096-.514.144-.774.05-.26.083-.524.118-.79a20.454 20.454 0 0 0 .173-3.302 20.924 20.924 0 0 0-5.269-13.34l-.578-.622-.072-.078-.06-.066-.12-.134-.238-.267-.957-1.072-1.92-2.148C26.111 13.633 15.998 2.574 15.396 2.901c-.254.13 5.978 7.113 6.262 7.49 1.394 1.848 4 5.007 7.197 8.782a926.177 926.177 0 0 0 5.163 6.036l2.768 3.2 1.405 1.617c.055.065.126.14.193.215l.202.222c.136.151.267.286.409.462l.415.504c.139.167.264.346.396.519a19.24 19.24 0 0 1 3.763 11.764c-.016.394-.02.785-.06 1.17-.016.194-.03.386-.05.577l-.074.568a18.836 18.836 0 0 1-1.09 4.219 19.046 19.046 0 0 1-1.764 3.478 19.734 19.734 0 0 1-2.038 2.637l-.504.531c-.168.167-.334.324-.494.478-.08.077-.158.154-.238.226l-.237.208-.45.393c-.3.238-.569.465-.824.653-.255.187-.48.359-.682.501a20.218 20.218 0 0 1-2.317 1.4 20.131 20.131 0 0 1-2.47 1.04 19.078 19.078 0 0 1-5.178.979 19.399 19.399 0 0 1-5.195-.44c-.422-.106-.85-.2-1.265-.333-.208-.065-.419-.123-.624-.195l-.617-.22a18.887 18.887 0 0 1-2.385-1.084c-.39-.2-.759-.434-1.135-.659-.185-.117-.365-.24-.548-.362l-.273-.183-.264-.194-.528-.393-.509-.416c-.084-.07-.17-.139-.253-.21l-.244-.22c-.162-.148-.326-.294-.487-.444l-.468-.467c-.077-.079-.156-.156-.232-.236l-.223-.246c-.149-.164-.299-.328-.445-.495l-.423-.517c-.07-.087-.141-.172-.209-.26l-.199-.27c-.132-.18-.267-.36-.394-.543-.247-.375-.504-.745-.726-1.137a19.972 19.972 0 0 1-2.79-10.63 24.517 24.517 0 0 1 .356-3.711 20.4 20.4 0 0 1 .946-3.536 17.317 17.317 0 0 1 1.618-3.29c.17-.257.336-.518.52-.767.184-.248.372-.495.565-.739q.302-.355.616-.704c.213-.23.439-.447.664-.667.081-.076.112-.17.086-.212s-.117-.023-.2.07z"/><path class="cls-1" d="M6.77 26.053a19.408 19.408 0 0 0-2.905 3.487 22.05 22.05 0 0 0-2.062 3.997A26.814 26.814 0 0 0 .016 42.49a25.873 25.873 0 0 0 1.214 8.795 25.096 25.096 0 0 0 1.695 4.039 24.029 24.029 0 0 0 2.469 3.783c.245.31.503.607.756.906.126.15.26.292.392.435l.398.426.2.212.206.203.414.403c.273.27.565.521.852.776a25.215 25.215 0 0 0 3.71 2.68 24.612 24.612 0 0 0 8.469 3.105 24.92 24.92 0 0 0 4.485.34 24.508 24.508 0 0 0 4.538-.489 23.88 23.88 0 0 0 8.702-3.672l.61-.426c.135-.096.29-.202.455-.324l.537-.412c.393-.295.82-.664 1.302-1.078.468-.427.984-.904 1.515-1.468a24.791 24.791 0 0 0 4.772-7.129c.236-.51.438-1.048.647-1.595.1-.274.19-.556.285-.838l.139-.428.124-.436c.08-.292.168-.586.238-.887s.14-.604.207-.91c.064-.307.116-.618.172-.932.059-.313.1-.631.14-.952a24.739 24.739 0 0 0 .2-3.976 25.267 25.267 0 0 0-6.372-16.055l-.651-.7-.08-.088-.06-.066-.12-.133-.237-.267-.954-1.07-1.915-2.141C29.254 10.708 19.169-.32 18.568.007c-.256.131 5.96 7.094 6.243 7.47 1.389 1.843 3.987 4.995 7.176 8.76a921.556 921.556 0 0 0 5.147 6.02l2.76 3.191 1.402 1.612.044.05.022.025.029.032.115.125.23.252.229.251.057.063.028.032.032.038.13.153.51.614c.17.205.325.422.486.634a23.532 23.532 0 0 1 4.654 14.407c-.016.483-.024.962-.069 1.435-.02.236-.037.472-.061.706l-.089.697a23.41 23.41 0 0 1-3.491 9.457 24.015 24.015 0 0 1-2.502 3.24l-.619.65c-.205.205-.409.397-.605.585-.099.094-.194.187-.291.275l-.291.256c-.191.167-.374.329-.553.48-.367.293-.7.568-1.012.8-.314.23-.593.436-.84.61a24.487 24.487 0 0 1-2.855 1.705 24.415 24.415 0 0 1-3.042 1.26 23.384 23.384 0 0 1-6.343 1.17 23.683 23.683 0 0 1-6.342-.568c-.517-.13-1.038-.251-1.546-.415-.255-.08-.512-.154-.764-.243l-.754-.272a23.183 23.183 0 0 1-2.91-1.34c-.475-.247-.926-.533-1.384-.81-.224-.145-.445-.296-.666-.445l-.331-.226-.323-.237-.64-.482-.617-.51c-.103-.085-.206-.17-.307-.257l-.297-.267c-.197-.18-.395-.359-.588-.543l-.568-.57c-.094-.096-.189-.191-.281-.289l-.271-.3c-.18-.201-.361-.402-.538-.606l-.513-.632c-.084-.107-.17-.211-.253-.32l-.242-.33c-.16-.22-.322-.44-.477-.665-.3-.457-.608-.912-.88-1.39a24.27 24.27 0 0 1-3.332-12.94 28.658 28.658 0 0 1 .468-4.494 24.694 24.694 0 0 1 1.191-4.27 21.529 21.529 0 0 1 1.992-3.966c.206-.31.41-.624.63-.925.224-.3.452-.598.686-.892q.363-.43.742-.852c.256-.278.526-.543.797-.81.097-.093.142-.198.116-.243s-.125-.012-.227.1z"/><path class="cls-2" d="M58.479 57.783l2.636-6.24 2.525 6.24h-.594l-.767-2.033h-2.452l-.795 2.033zm1.533-2.501h2.09l-1.024-2.612zM64.649 57.783V51.78h1.041a5.203 5.203 0 0 1 .988.065 1.313 1.313 0 0 1 .516.226 1.483 1.483 0 0 1 .455.55 1.65 1.65 0 0 1 .156.72 1.328 1.328 0 0 1-.25.817 1.174 1.174 0 0 1-.688.442 1.431 1.431 0 0 1 .906.464 1.4 1.4 0 0 1 .328.955 2.071 2.071 0 0 1-.127.75 1.489 1.489 0 0 1-.386.566 1.464 1.464 0 0 1-.631.346 5.39 5.39 0 0 1-1.259.101zm.545-3.333h.68a1.736 1.736 0 0 0 1.06-.246.987.987 0 0 0 .31-.82 1.092 1.092 0 0 0-.3-.873 1.694 1.694 0 0 0-1.068-.254h-.681zm0 2.861h.697a4.582 4.582 0 0 0 .82-.049.966.966 0 0 0 .381-.168 1.02 1.02 0 0 0 .308-.408 1.36 1.36 0 0 0 .115-.556 1.494 1.494 0 0 0-.127-.634.902.902 0 0 0-.353-.407 1.14 1.14 0 0 0-.367-.13 4.077 4.077 0 0 0-.658-.038h-.816zM69.63 57.783V51.78h.935a8.805 8.805 0 0 1 1.775.123 2.265 2.265 0 0 1 .902.422 2.531 2.531 0 0 1 .762 1.025 4.056 4.056 0 0 1 0 2.872 2.361 2.361 0 0 1-1.643 1.433 7.23 7.23 0 0 1-1.612.127H69.63zm.545-.472h.767a5.714 5.714 0 0 0 1.32-.104 1.541 1.541 0 0 0 .66-.355 2.234 2.234 0 0 0 .57-.877 3.855 3.855 0 0 0-.002-2.411 2.105 2.105 0 0 0-.576-.861 1.646 1.646 0 0 0-.701-.365 6.638 6.638 0 0 0-1.448-.106h-.59zM75.792 51.78h.537v3.92a1.874 1.874 0 0 0 .406 1.322 1.624 1.624 0 0 0 1.242.433 1.607 1.607 0 0 0 1.23-.433 1.874 1.874 0 0 0 .406-1.322v-3.92h.545v3.744a2.645 2.645 0 0 1-.541 1.818 2.545 2.545 0 0 1-3.284 0 2.645 2.645 0 0 1-.541-1.818zM81.961 57.783V51.78h.546v5.489h2.058v.513zM88.52 57.783V51.78h.545v5.489h2.058v.513zM91.505 57.783l2.636-6.24 2.526 6.24h-.594l-.767-2.033h-2.452l-.796 2.033zm1.533-2.501h2.091l-1.025-2.612zM98.281 57.783v-5.49H96.63v-.512h3.854v.513h-1.656v5.489zM101.725 57.783V51.78h.546v6.002zM104.103 57.783V51.78h2.973v.512h-2.428v1.877h2.337v.513h-2.337v3.1zM112.568 56.138v-4.357h.546v4.71a1.595 1.595 0 0 1-.324 1.083 1.199 1.199 0 0 1-.951.369 1.4 1.4 0 0 1-.675-.158 1.296 1.296 0 0 1-.486-.465l.386-.353a1.258 1.258 0 0 0 .358.344.768.768 0 0 0 .4.111.616.616 0 0 0 .574-.289 2.078 2.078 0 0 0 .172-.995zM114.048 57.783l2.636-6.24 2.526 6.24h-.594l-.768-2.034h-2.451l-.796 2.034zm1.533-2.501h2.091l-1.025-2.612zM122.957 58.016L120.85 53.2l-.455 4.584h-.561l.816-6.257 2.299 5.343 2.386-5.343.772 6.257h-.563l-.447-4.584zM127.573 57.783V51.78h2.972v.512h-2.427v1.877h2.427v.513h-2.427v2.587h2.427v.513zM132.217 57.783V51.78h2.973v.512h-2.428v1.877h2.428v.513h-2.428v2.587h2.428v.513zM136.862 57.783V51.78h.545v5.489h2.058v.513zM143.421 57.783V51.78h1.095a4.743 4.743 0 0 1 .953.069 1.482 1.482 0 0 1 .531.23 1.336 1.336 0 0 1 .439.561 1.966 1.966 0 0 1 .156.793 1.54 1.54 0 0 1-.48 1.255 2.349 2.349 0 0 1-1.517.4h-.632v2.694zm.545-3.173h.373a2.436 2.436 0 0 0 1.335-.253 1.026 1.026 0 0 0 .343-.883 1.487 1.487 0 0 0-.078-.49 1.182 1.182 0 0 0-.234-.4.867.867 0 0 0-.434-.254 4.089 4.089 0 0 0-.932-.073h-.373zM154.097 54.794a3.075 3.075 0 0 1-.242 1.208 3.117 3.117 0 0 1-.697 1.018 3.284 3.284 0 0 1-3.506.687 3.226 3.226 0 0 1-1.74-1.71 3.06 3.06 0 0 1-.24-1.204 3.103 3.103 0 0 1 .24-1.214 3.165 3.165 0 0 1 .7-1.028 3.056 3.056 0 0 1 1.03-.676 3.463 3.463 0 0 1 2.484.002 3.124 3.124 0 0 1 1.97 2.917zm-3.216 2.66a2.62 2.62 0 0 0 1.009-.196 2.682 2.682 0 0 0 .857-4.354 2.572 2.572 0 0 0-.851-.574 2.645 2.645 0 0 0-1.015-.197 2.59 2.59 0 0 0-1.006.197 2.695 2.695 0 0 0-.853.574 2.746 2.746 0 0 0-.574.867 2.689 2.689 0 0 0 .574 2.913 2.58 2.58 0 0 0 .846.576 2.607 2.607 0 0 0 1.013.195zM157.02 58.016l-2.35-6.235h.628l1.73 4.886 1.82-4.886h.598zM160.45 57.783V51.78h2.973v.512h-2.428v1.877h2.428v.513h-2.428v2.587h2.428v.513zM168.74 57.783h-.664l-2.107-2.862h-.328v2.862h-.545V51.78h1.102a2.241 2.241 0 0 1 1.462.405 1.511 1.511 0 0 1 .487 1.23 1.458 1.458 0 0 1-.417 1.102 1.577 1.577 0 0 1-1.146.403zm-3.1-5.527v2.218h.55a1.729 1.729 0 0 0 1.064-.244 1.01 1.01 0 0 0 .302-.83 1.096 1.096 0 0 0-.312-.882 1.648 1.648 0 0 0-1.053-.262zM170.782 57.783v-5.49h-1.652v-.512h3.853v.513h-1.656v5.489zM175.513 57.783v-2.764l-1.992-3.238h.656l1.611 2.75 1.62-2.75h.623l-1.972 3.238v2.764zM181.08 57.783l2.636-6.24 2.525 6.24h-.594l-.767-2.033h-2.451l-.796 2.033zm1.534-2.501h2.09l-1.025-2.612zM191.923 52.88a3.222 3.222 0 0 0-.914-.57 2.655 2.655 0 0 0-.984-.185 2.54 2.54 0 0 0-1.892.738 2.62 2.62 0 0 0-.728 1.923 3.049 3.049 0 0 0 .178 1.07 2.382 2.382 0 0 0 .544.845 2.456 2.456 0 0 0 .826.548 2.623 2.623 0 0 0 .998.189 2.977 2.977 0 0 0 1.01-.176 3.311 3.311 0 0 0 .93-.52v.64a3.964 3.964 0 0 1-.938.416 3.458 3.458 0 0 1-.977.145 3.367 3.367 0 0 1-1.246-.234 2.976 2.976 0 0 1-1.022-.656 2.904 2.904 0 0 1-.664-1.008 3.411 3.411 0 0 1-.225-1.26 3.35 3.35 0 0 1 .232-1.254 2.845 2.845 0 0 1 .666-1.004 2.998 2.998 0 0 1 1.019-.648 3.382 3.382 0 0 1 1.24-.234 3.45 3.45 0 0 1 1.064.158 2.85 2.85 0 0 1 .892.474zM194.507 57.783v-5.49h-1.652v-.512h3.853v.513h-1.656v5.489zM197.95 57.783V51.78h.545v6.002zM206.469 54.794a3.075 3.075 0 0 1-.242 1.208 3.117 3.117 0 0 1-.697 1.018 3.284 3.284 0 0 1-3.506.686 3.226 3.226 0 0 1-1.74-1.708 3.06 3.06 0 0 1-.24-1.205 3.103 3.103 0 0 1 .24-1.214 3.165 3.165 0 0 1 .7-1.028 3.056 3.056 0 0 1 1.03-.676 3.463 3.463 0 0 1 2.484.002 3.124 3.124 0 0 1 1.971 2.917zm-3.216 2.66a2.62 2.62 0 0 0 1.009-.196 2.682 2.682 0 0 0 .857-4.354 2.572 2.572 0 0 0-.851-.574 2.645 2.645 0 0 0-1.015-.197 2.59 2.59 0 0 0-1.006.197 2.695 2.695 0 0 0-.853.574 2.746 2.746 0 0 0-.574.867 2.689 2.689 0 0 0 .574 2.913 2.58 2.58 0 0 0 .846.576 2.607 2.607 0 0 0 1.013.195zM208.01 57.783v-6.257l4.252 5.022v-4.767h.508v6.179l-4.247-5.032v4.855zM217.357 57.783V51.78h.545v5.489h2.058v.513zM220.341 57.783l2.637-6.24 2.525 6.24h-.594l-.767-2.034h-2.451l-.796 2.034zm1.534-2.501h2.091l-1.025-2.612zM226.512 57.783V51.78h1.041a5.205 5.205 0 0 1 .988.065 1.313 1.313 0 0 1 .517.226 1.488 1.488 0 0 1 .455.55 1.643 1.643 0 0 1 .156.72 1.334 1.334 0 0 1-.25.817 1.176 1.176 0 0 1-.69.442 1.431 1.431 0 0 1 .907.464 1.4 1.4 0 0 1 .328.955 2.06 2.06 0 0 1-.127.75 1.483 1.483 0 0 1-.386.566 1.462 1.462 0 0 1-.63.346 5.399 5.399 0 0 1-1.26.101zm.545-3.333h.68a1.74 1.74 0 0 0 1.061-.246.989.989 0 0 0 .31-.82 1.09 1.09 0 0 0-.302-.873 1.694 1.694 0 0 0-1.068-.254h-.68zm0 2.861h.697a4.582 4.582 0 0 0 .82-.049.958.958 0 0 0 .381-.168 1.012 1.012 0 0 0 .308-.408 1.368 1.368 0 0 0 .115-.556 1.501 1.501 0 0 0-.127-.634.904.904 0 0 0-.354-.407 1.134 1.134 0 0 0-.366-.13 4.083 4.083 0 0 0-.658-.038h-.816z"/><path class="cls-3" d="M66.932 15.68h2.56v22.093c0 4.53-2.126 6.813-5.985 6.813a6.07 6.07 0 0 1-5.435-2.914l1.811-1.654a4.42 4.42 0 0 0 3.544 2.127c2.797 0 3.506-2.087 3.506-6.025zM86.859 32.102v2.482H78.47v-2.482zM95.364 15.68h5.474c2.678 0 4.765.079 6.616 1.417a7.688 7.688 0 0 1 2.796 6.341c0 5.553-3.15 7.758-9.373 7.758h-2.953v12.642h-2.56zm4.293 13.272c5.001 0 7.876-.551 7.876-5.317a5.773 5.773 0 0 0-1.89-4.607c-1.3-1.064-3.19-1.103-5.986-1.103h-1.733v11.027zM126.16 14.577l11.854 29.261h-2.796l-3.584-9.53h-11.5l-3.742 9.53h-2.599zm4.646 17.525l-4.804-12.248L121 32.102zM146.755 15.68h2.56v25.756h9.65v2.402h-12.21z"/></svg>